<svg xmlns="http://www.w3.org/2000/svg" width="20" height="17.5" viewBox="0 0 20 17.5">
  <path id="Icon_awesome-bars" data-name="Icon awesome-bars" d="M.714,7.433H19.286A.714.714,0,0,0,20,6.719V4.933a.714.714,0,0,0-.714-.714H.714A.714.714,0,0,0,0,4.933V6.719A.714.714,0,0,0,.714,7.433Zm0,7.143H19.286A.714.714,0,0,0,20,13.862V12.076a.714.714,0,0,0-.714-.714H.714A.714.714,0,0,0,0,12.076v1.786A.714.714,0,0,0,.714,14.576Zm0,7.143H19.286A.714.714,0,0,0,20,21V19.219a.714.714,0,0,0-.714-.714H.714A.714.714,0,0,0,0,19.219V21A.714.714,0,0,0,.714,21.719Z" transform="translate(0 -4.219)" fill="#e74c3c"/>
</svg>
